<?xml version="1.0" encoding="UTF-8" standalone="no"?>
<svg
   xmlns:dc="http://purl.org/dc/elements/1.1/"
   xmlns:cc="http://creativecommons.org/ns#"
   xmlns:rdf="http://www.w3.org/1999/02/22-rdf-syntax-ns#"
   xmlns:svg="http://www.w3.org/2000/svg"
   xmlns="http://www.w3.org/2000/svg"
   xmlns:sodipodi="http://sodipodi.sourceforge.net/DTD/sodipodi-0.dtd"
   xmlns:inkscape="http://www.inkscape.org/namespaces/inkscape"
   version="1.1"
   width="1564.3474"
   height="850.06677"
   viewBox="0 0 1564.3486 850.06752"
   id="svg2"
   inkscape:version="0.48.4 r"
   sodipodi:docname="caseplans.svg">
  <metadata
     id="metadata32">
    <rdf:RDF>
      <cc:Work
         rdf:about="">
        <dc:format>image/svg+xml</dc:format>
        <dc:type
           rdf:resource="http://purl.org/dc/dcmitype/StillImage" />
      </cc:Work>
    </rdf:RDF>
  </metadata>
  <defs
     id="defs30" />
  <sodipodi:namedview
     pagecolor="#ffffff"
     bordercolor="#666666"
     borderopacity="1"
     objecttolerance="10"
     gridtolerance="10"
     guidetolerance="10"
     inkscape:pageopacity="0"
     inkscape:pageshadow="2"
     inkscape:window-width="1280"
     inkscape:window-height="752"
     id="namedview28"
     showgrid="false"
     inkscape:snap-global="true"
     inkscape:object-paths="true"
     inkscape:snap-object-midpoints="true"
     inkscape:snap-intersection-paths="true"
     inkscape:object-nodes="true"
     inkscape:snap-smooth-nodes="true"
     fit-margin-top="0"
     fit-margin-left="0"
     fit-margin-right="0"
     fit-margin-bottom="0"
     inkscape:zoom="0.62023359"
     inkscape:cx="617.64733"
     inkscape:cy="972.43997"
     inkscape:window-x="0"
     inkscape:window-y="0"
     inkscape:window-maximized="1"
     inkscape:current-layer="svg2"
     showguides="true"
     inkscape:guide-bbox="true" />
  <!-- Front-->
  <!-- Back-->
  <g
     transform="translate(391.59605,31.044582)"
     id="g8">
    <polygon
       style="fill:none;stroke:#000000;stroke-width:0.90000075"
       points="104.52765,10.62993 104.52765,0 125.7875,0 125.7875,10.62993 147.04737,10.62993 147.04737,0 168.30723,0 168.30723,10.62993 189.56708,10.62993 189.56708,0 210.82694,0 210.82694,10.62993 232.0868,10.62993 232.0868,0 253.34667,0 253.34667,10.62993 274.60653,10.62993 274.60653,0 295.86639,0 295.86639,10.62993 317.12624,10.62993 317.12624,0 338.3861,0 338.3861,10.62993 359.64596,10.62993 359.64596,0 380.90582,0 380.90582,10.62993 402.16568,10.62993 402.16568,0 423.42554,0 423.42554,10.62993 444.68541,10.62993 444.68541,0 465.94527,0 465.94527,10.62993 487.20513,10.62993 487.20513,0 508.46499,0 508.46499,10.62993 529.72484,10.62993 529.72484,0 550.98471,0 550.98471,10.62993 572.24456,10.62993 572.24456,0 593.50442,0 593.50442,10.62993 614.76428,10.62993 614.76428,0 636.02414,0 636.02414,10.62993 657.284,10.62993 657.284,0 678.54386,0 678.54386,10.62993 699.80372,10.62993 699.80372,0 721.06358,0 721.06358,10.62993 752.06755,10.62993 752.06755,0 783.07151,0 783.07151,30.118135 772.44158,30.118135 772.44158,60.23627 783.07151,60.23627 783.07151,81.49613 772.44158,81.49613 772.44158,102.75599 783.07151,102.75599 783.07151,124.01585 772.44158,124.01585 772.44158,145.27571 783.07151,145.27571 783.07151,166.53557 772.44158,166.53557 772.44158,187.79543 783.07151,187.79543 783.07151,209.05529 772.44158,209.05529 772.44158,230.31515 783.07151,230.31515 783.07151,251.57501 772.44158,251.57501 772.44158,272.83487 783.07151,272.83487 783.07151,294.09473 772.44158,294.09473 772.44158,324.21287 783.07151,324.21287 783.07151,354.331 752.06755,354.331 752.06755,343.70107 721.06358,343.70107 721.06358,354.331 699.80372,354.331 699.80372,343.70107 678.54386,343.70107 678.54386,354.331 657.284,354.331 657.284,343.70107 636.02414,343.70107 636.02414,354.331 614.76428,354.331 614.76428,343.70107 593.50442,343.70107 593.50442,354.331 572.24456,354.331 572.24456,343.70107 550.98471,343.70107 550.98471,354.331 529.72484,354.331 529.72484,343.70107 508.46499,343.70107 508.46499,354.331 487.20513,354.331 487.20513,343.70107 465.94527,343.70107 465.94527,354.331 444.68541,354.331 444.68541,343.70107 423.42554,343.70107 423.42554,354.331 402.16568,354.331 402.16568,343.70107 380.90582,343.70107 380.90582,354.331 359.64596,354.331 359.64596,343.70107 338.3861,343.70107 338.3861,354.331 317.12624,354.331 317.12624,343.70107 295.86639,343.70107 295.86639,354.331 274.60653,354.331 274.60653,343.70107 253.34667,343.70107 253.34667,354.331 232.0868,354.331 232.0868,343.70107 210.82694,343.70107 210.82694,354.331 189.56708,354.331 189.56708,343.70107 168.30723,343.70107 168.30723,354.331 147.04737,354.331 147.04737,343.70107 125.7875,343.70107 125.7875,354.331 104.52765,354.331 104.52765,343.70107 83.267785,343.70107 83.267785,354.331 62.007925,354.331 62.007925,343.70107 31.003963,343.70107 31.003963,354.331 0,354.331 0,324.21287 10.62993,324.21287 10.62993,294.09473 0,294.09473 0,272.83487 10.62993,272.83487 10.62993,251.57501 0,251.57501 0,230.31515 10.62993,230.31515 10.62993,209.05529 0,209.05529 0,187.79543 10.62993,187.79543 10.62993,166.53557 0,166.53557 0,145.27571 10.62993,145.27571 10.62993,124.01585 0,124.01585 0,102.75599 10.62993,102.75599 10.62993,81.49613 0,81.49613 0,60.23627 10.62993,60.23627 10.62993,30.118135 0,30.118135 0,0 31.003963,0 31.003963,10.62993 62.007925,10.62993 62.007925,0 83.267785,0 83.267785,10.62993 "
       id="polygon10" />
  </g>
  <!-- Left-->
  <g
     transform="translate(1174.6675,31.044582)"
     id="g12">
    <polygon
       style="fill:none;stroke:#000000;stroke-width:0.90000075"
       points="102.75599,10.62993 102.75599,0 124.01585,0 124.01585,10.62993 145.27571,10.62993 145.27571,0 166.53557,0 166.53557,10.62993 187.79543,10.62993 187.79543,0 209.05529,0 209.05529,10.62993 230.31515,10.62993 230.31515,0 251.57501,0 251.57501,10.62993 272.83487,10.62993 272.83487,0 294.09473,0 294.09473,10.62993 324.21287,10.62993 324.21287,0 343.70107,0 343.70107,30.118135 354.331,30.118135 354.331,60.23627 343.70107,60.23627 343.70107,81.49613 354.331,81.49613 354.331,102.75599 343.70107,102.75599 343.70107,124.01585 354.331,124.01585 354.331,145.27571 343.70107,145.27571 343.70107,166.53557 354.331,166.53557 354.331,187.79543 343.70107,187.79543 343.70107,209.05529 354.331,209.05529 354.331,230.31515 343.70107,230.31515 343.70107,251.57501 354.331,251.57501 354.331,272.83487 343.70107,272.83487 343.70107,294.09473 354.331,294.09473 354.331,324.21287 343.70107,324.21287 343.70107,354.331 324.21287,354.331 324.21287,343.70107 294.09473,343.70107 294.09473,354.331 272.83487,354.331 272.83487,343.70107 251.57501,343.70107 251.57501,354.331 230.31515,354.331 230.31515,343.70107 209.05529,343.70107 209.05529,354.331 187.79543,354.331 187.79543,343.70107 166.53557,343.70107 166.53557,354.331 145.27571,354.331 145.27571,343.70107 124.01585,343.70107 124.01585,354.331 102.75599,354.331 102.75599,343.70107 81.49613,343.70107 81.49613,354.331 60.23627,354.331 60.23627,343.70107 30.118135,343.70107 30.118135,354.331 10.62993,354.331 10.62993,324.21287 0,324.21287 0,294.09473 10.62993,294.09473 10.62993,272.83487 0,272.83487 0,251.57501 10.62993,251.57501 10.62993,230.31515 0,230.31515 0,209.05529 10.62993,209.05529 10.62993,187.79543 0,187.79543 0,166.53557 10.62993,166.53557 10.62993,145.27571 0,145.27571 0,124.01585 10.62993,124.01585 10.62993,102.75599 0,102.75599 0,81.49613 10.62993,81.49613 10.62993,60.23627 0,60.23627 0,30.118135 10.62993,30.118135 10.62993,0 30.118135,0 30.118135,10.62993 60.23627,10.62993 60.23627,0 81.49613,0 81.49613,10.62993 "
       id="polygon14" />
  </g>
  <!-- Right-->
  <g
     transform="translate(1174.6675,385.37558)"
     id="g16">
    <polygon
       style="fill:none;stroke:#000000;stroke-width:0.90000075"
       points="102.75599,10.62993 102.75599,0 124.01585,0 124.01585,10.62993 145.27571,10.62993 145.27571,0 166.53557,0 166.53557,10.62993 187.79543,10.62993 187.79543,0 209.05529,0 209.05529,10.62993 230.31515,10.62993 230.31515,0 251.57501,0 251.57501,10.62993 272.83487,10.62993 272.83487,0 294.09473,0 294.09473,10.62993 324.21287,10.62993 324.21287,0 343.70107,0 343.70107,30.118135 354.331,30.118135 354.331,60.23627 343.70107,60.23627 343.70107,81.49613 354.331,81.49613 354.331,102.75599 343.70107,102.75599 343.70107,124.01585 354.331,124.01585 354.331,145.27571 343.70107,145.27571 343.70107,166.53557 354.331,166.53557 354.331,187.79543 343.70107,187.79543 343.70107,209.05529 354.331,209.05529 354.331,230.31515 343.70107,230.31515 343.70107,251.57501 354.331,251.57501 354.331,272.83487 343.70107,272.83487 343.70107,294.09473 354.331,294.09473 354.331,324.21287 343.70107,324.21287 343.70107,354.331 324.21287,354.331 324.21287,343.70107 294.09473,343.70107 294.09473,354.331 272.83487,354.331 272.83487,343.70107 251.57501,343.70107 251.57501,354.331 230.31515,354.331 230.31515,343.70107 209.05529,343.70107 209.05529,354.331 187.79543,354.331 187.79543,343.70107 166.53557,343.70107 166.53557,354.331 145.27571,354.331 145.27571,343.70107 124.01585,343.70107 124.01585,354.331 102.75599,354.331 102.75599,343.70107 81.49613,343.70107 81.49613,354.331 60.23627,354.331 60.23627,343.70107 30.118135,343.70107 30.118135,354.331 10.62993,354.331 10.62993,324.21287 0,324.21287 0,294.09473 10.62993,294.09473 10.62993,272.83487 0,272.83487 0,251.57501 10.62993,251.57501 10.62993,230.31515 0,230.31515 0,209.05529 10.62993,209.05529 10.62993,187.79543 0,187.79543 0,166.53557 10.62993,166.53557 10.62993,145.27571 0,145.27571 0,124.01585 10.62993,124.01585 10.62993,102.75599 0,102.75599 0,81.49613 10.62993,81.49613 10.62993,60.23627 0,60.23627 0,30.118135 10.62993,30.118135 10.62993,0 30.118135,0 30.118135,10.62993 60.23627,10.62993 60.23627,0 81.49613,0 81.49613,10.62993 "
       id="polygon18" />
  </g>
  <!-- Top-->
  <g
     transform="matrix(0,1,-1,0,391.59605,30.158754)"
     id="g20">
    <polygon
       style="fill:none;stroke:#000000;stroke-width:0.90000075"
       points="189.56708,0 189.56708,10.62993 210.82694,10.62993 210.82694,0 232.0868,0 232.0868,10.62993 253.34667,10.62993 253.34667,0 274.60653,0 274.60653,10.62993 295.86639,10.62993 295.86639,0 317.12624,0 317.12624,10.62993 338.3861,10.62993 338.3861,0 359.64596,0 359.64596,10.62993 380.90582,10.62993 380.90582,0 402.16568,0 402.16568,10.62993 423.42554,10.62993 423.42554,0 444.68541,0 444.68541,10.62993 465.94527,10.62993 465.94527,0 487.20513,0 487.20513,10.62993 508.46499,10.62993 508.46499,0 529.72484,0 529.72484,10.62993 550.98471,10.62993 550.98471,0 572.24456,0 572.24456,10.62993 593.50442,10.62993 593.50442,0 614.76428,0 614.76428,10.62993 636.02414,10.62993 636.02414,0 657.284,0 657.284,10.62993 678.54386,10.62993 678.54386,0 699.80372,0 699.80372,10.62993 721.06358,10.62993 721.06358,0 752.06755,0 752.06755,10.62993 772.44158,10.62993 772.44158,30.118135 783.07151,30.118135 783.07151,60.23627 772.44158,60.23627 772.44158,81.49613 783.07151,81.49613 783.07151,102.75599 772.44158,102.75599 772.44158,124.01585 783.07151,124.01585 783.07151,145.27571 772.44158,145.27571 772.44158,166.53557 783.07151,166.53557 783.07151,187.79543 772.44158,187.79543 772.44158,209.05529 783.07151,209.05529 783.07151,230.31515 772.44158,230.31515 772.44158,251.57501 783.07151,251.57501 783.07151,272.83487 772.44158,272.83487 772.44158,294.09473 783.07151,294.09473 783.07151,324.21287 772.44158,324.21287 772.44158,343.70107 752.06755,343.70107 752.06755,354.331 721.06358,354.331 721.06358,343.70107 699.80372,343.70107 699.80372,354.331 678.54386,354.331 678.54386,343.70107 657.284,343.70107 657.284,354.331 636.02414,354.331 636.02414,343.70107 614.76428,343.70107 614.76428,354.331 593.50442,354.331 593.50442,343.70107 572.24456,343.70107 572.24456,354.331 550.98471,354.331 550.98471,343.70107 529.72484,343.70107 529.72484,354.331 508.46499,354.331 508.46499,343.70107 487.20513,343.70107 487.20513,354.331 465.94527,354.331 465.94527,343.70107 444.68541,343.70107 444.68541,354.331 423.42554,354.331 423.42554,343.70107 402.16568,343.70107 402.16568,354.331 380.90582,354.331 380.90582,343.70107 359.64596,343.70107 359.64596,354.331 338.3861,354.331 338.3861,343.70107 317.12624,343.70107 317.12624,354.331 295.86639,354.331 295.86639,343.70107 274.60653,343.70107 274.60653,354.331 253.34667,354.331 253.34667,343.70107 232.0868,343.70107 232.0868,354.331 210.82694,354.331 210.82694,343.70107 189.56708,343.70107 189.56708,354.331 168.30723,354.331 168.30723,343.70107 147.04737,343.70107 147.04737,354.331 125.7875,354.331 125.7875,343.70107 104.52765,343.70107 104.52765,354.331 83.267785,354.331 83.267785,343.70107 62.007925,343.70107 62.007925,354.331 31.003963,354.331 31.003963,343.70107 10.62993,343.70107 10.62993,324.21287 0,324.21287 0,294.09473 10.62993,294.09473 10.62993,272.83487 0,272.83487 0,251.57501 10.62993,251.57501 10.62993,230.31515 0,230.31515 0,209.05529 10.62993,209.05529 10.62993,187.79543 0,187.79543 0,166.53557 10.62993,166.53557 10.62993,145.27571 0,145.27571 0,124.01585 10.62993,124.01585 10.62993,102.75599 0,102.75599 0,81.49613 10.62993,81.49613 10.62993,60.23627 0,60.23627 0,30.118135 10.62993,30.118135 10.62993,10.62993 31.003963,10.62993 31.003963,0 62.007925,0 62.007925,10.62993 83.267785,10.62993 83.267785,0 104.52765,0 104.52765,10.62993 125.7875,10.62993 125.7875,0 147.04737,0 147.04737,10.62993 168.30723,10.62993 168.30723,0 "
       id="polygon22" />
  </g>
  <!-- Bottom-->
  <g
     transform="translate(391.59605,385.37558)"
     id="g24">
    <polygon
       style="fill:none;stroke:#000000;stroke-width:0.90000075"
       points="104.52765,0 104.52765,10.62993 125.7875,10.62993 125.7875,0 147.04737,0 147.04737,10.62993 168.30723,10.62993 168.30723,0 189.56708,0 189.56708,10.62993 210.82694,10.62993 210.82694,0 232.0868,0 232.0868,10.62993 253.34667,10.62993 253.34667,0 274.60653,0 274.60653,10.62993 295.86639,10.62993 295.86639,0 317.12624,0 317.12624,10.62993 338.3861,10.62993 338.3861,0 359.64596,0 359.64596,10.62993 380.90582,10.62993 380.90582,0 402.16568,0 402.16568,10.62993 423.42554,10.62993 423.42554,0 444.68541,0 444.68541,10.62993 465.94527,10.62993 465.94527,0 487.20513,0 487.20513,10.62993 508.46499,10.62993 508.46499,0 529.72484,0 529.72484,10.62993 550.98471,10.62993 550.98471,0 572.24456,0 572.24456,10.62993 593.50442,10.62993 593.50442,0 614.76428,0 614.76428,10.62993 636.02414,10.62993 636.02414,0 657.284,0 657.284,10.62993 678.54386,10.62993 678.54386,0 699.80372,0 699.80372,10.62993 721.06358,10.62993 721.06358,0 752.06755,0 752.06755,10.62993 772.44158,10.62993 772.44158,30.118135 783.07151,30.118135 783.07151,60.23627 772.44158,60.23627 772.44158,81.49613 783.07151,81.49613 783.07151,102.75599 772.44158,102.75599 772.44158,124.01585 783.07151,124.01585 783.07151,145.27571 772.44158,145.27571 772.44158,166.53557 783.07151,166.53557 783.07151,187.79543 772.44158,187.79543 772.44158,209.05529 783.07151,209.05529 783.07151,230.31515 772.44158,230.31515 772.44158,251.57501 783.07151,251.57501 783.07151,272.83487 772.44158,272.83487 772.44158,294.09473 783.07151,294.09473 783.07151,324.21287 772.44158,324.21287 772.44158,343.70107 752.06755,343.70107 752.06755,354.331 721.06358,354.331 721.06358,343.70107 699.80372,343.70107 699.80372,354.331 678.54386,354.331 678.54386,343.70107 657.284,343.70107 657.284,354.331 636.02414,354.331 636.02414,343.70107 614.76428,343.70107 614.76428,354.331 593.50442,354.331 593.50442,343.70107 572.24456,343.70107 572.24456,354.331 550.98471,354.331 550.98471,343.70107 529.72484,343.70107 529.72484,354.331 508.46499,354.331 508.46499,343.70107 487.20513,343.70107 487.20513,354.331 465.94527,354.331 465.94527,343.70107 444.68541,343.70107 444.68541,354.331 423.42554,354.331 423.42554,343.70107 402.16568,343.70107 402.16568,354.331 380.90582,354.331 380.90582,343.70107 359.64596,343.70107 359.64596,354.331 338.3861,354.331 338.3861,343.70107 317.12624,343.70107 317.12624,354.331 295.86639,354.331 295.86639,343.70107 274.60653,343.70107 274.60653,354.331 253.34667,354.331 253.34667,343.70107 232.0868,343.70107 232.0868,354.331 210.82694,354.331 210.82694,343.70107 189.56708,343.70107 189.56708,354.331 168.30723,354.331 168.30723,343.70107 147.04737,343.70107 147.04737,354.331 125.7875,354.331 125.7875,343.70107 104.52765,343.70107 104.52765,354.331 83.267785,354.331 83.267785,343.70107 62.007925,343.70107 62.007925,354.331 31.003963,354.331 31.003963,343.70107 10.62993,343.70107 10.62993,324.21287 0,324.21287 0,294.09473 10.62993,294.09473 10.62993,272.83487 0,272.83487 0,251.57501 10.62993,251.57501 10.62993,230.31515 0,230.31515 0,209.05529 10.62993,209.05529 10.62993,187.79543 0,187.79543 0,166.53557 10.62993,166.53557 10.62993,145.27571 0,145.27571 0,124.01585 10.62993,124.01585 10.62993,102.75599 0,102.75599 0,81.49613 10.62993,81.49613 10.62993,60.23627 0,60.23627 0,30.118135 10.62993,30.118135 10.62993,10.62993 31.003963,10.62993 31.003963,0 62.007925,0 62.007925,10.62993 83.267785,10.62993 83.267785,0 "
       id="polygon26" />
  </g>
  <rect
     style="opacity:0.5;fill:#333333;fill-opacity:1;stroke:#ff0000;stroke-width:0;stroke-linecap:round;stroke-linejoin:round;stroke-miterlimit:4;stroke-opacity:1;stroke-dasharray:none;stroke-dashoffset:0"
     id="rect3789"
     width="744.09515"
     height="354.33102"
     x="309.56061"
     y="-465.19244" />
  <rect
     style="opacity:0.5;fill:#333333;fill-opacity:1;stroke:#ff0000;stroke-width:0;stroke-linecap:round;stroke-linejoin:round;stroke-miterlimit:4;stroke-opacity:1;stroke-dasharray:none;stroke-dashoffset:0"
     id="rect3793"
     width="391.5358"
     height="177.16551"
     x="485.84027"
     y="-376.60968" />
  <rect
     y="-376.60968"
     x="485.84027"
     height="177.16551"
     width="177.16551"
     id="rect3795"
     style="opacity:0.5;fill:#333333;fill-opacity:1;stroke:#ff0000;stroke-width:0;stroke-linecap:round;stroke-linejoin:round;stroke-miterlimit:4;stroke-opacity:1;stroke-dasharray:none;stroke-dashoffset:0" />
  <rect
     style="opacity:0.5;fill:#333333;fill-opacity:1;stroke:#ff0000;stroke-width:0;stroke-linecap:round;stroke-linejoin:round;stroke-miterlimit:4;stroke-opacity:1;stroke-dasharray:none;stroke-dashoffset:0"
     id="rect3797"
     width="177.16551"
     height="177.16551"
     x="700.21057"
     y="-376.60968" />
  <path
     sodipodi:type="arc"
     style="opacity:0.5;fill:#333333;fill-opacity:1;stroke:#ff0000;stroke-width:0;stroke-linecap:round;stroke-linejoin:round;stroke-miterlimit:4;stroke-opacity:1;stroke-dasharray:none;stroke-dashoffset:0"
     id="path3799"
     sodipodi:cx="267.64111"
     sodipodi:cy="-584.07031"
     sodipodi:rx="61.267239"
     sodipodi:ry="34.66436"
     d="m 328.90835,-584.07031 a 61.267239,34.66436 0 1 1 -122.53448,0 61.267239,34.66436 0 1 1 122.53448,0 z"
     transform="matrix(1.1566737,0,0,2.0443534,264.8496,906.01921)" />
  <path
     transform="matrix(1.1566737,0,0,2.0443534,479.2199,906.01921)"
     d="m 328.90835,-584.07031 a 61.267239,34.66436 0 1 1 -122.53448,0 61.267239,34.66436 0 1 1 122.53448,0 z"
     sodipodi:ry="34.66436"
     sodipodi:rx="61.267239"
     sodipodi:cy="-584.07031"
     sodipodi:cx="267.64111"
     id="path3801"
     style="opacity:0.5;fill:#333333;fill-opacity:1;stroke:#ff0000;stroke-width:0;stroke-linecap:round;stroke-linejoin:round;stroke-miterlimit:4;stroke-opacity:1;stroke-dasharray:none;stroke-dashoffset:0"
     sodipodi:type="arc" />
</svg>
