<?xml version="1.0" encoding="UTF-8" standalone="no"?>
<!-- Created with Inkscape (http://www.inkscape.org/) -->

<svg
   xmlns:osb="http://www.openswatchbook.org/uri/2009/osb"
   xmlns:dc="http://purl.org/dc/elements/1.1/"
   xmlns:cc="http://creativecommons.org/ns#"
   xmlns:rdf="http://www.w3.org/1999/02/22-rdf-syntax-ns#"
   xmlns:svg="http://www.w3.org/2000/svg"
   xmlns="http://www.w3.org/2000/svg"
   xmlns:sodipodi="http://sodipodi.sourceforge.net/DTD/sodipodi-0.dtd"
   xmlns:inkscape="http://www.inkscape.org/namespaces/inkscape"
   version="1.1"
   width="860.20874"
   height="421.77634"
   viewBox="0 0 860.20939 421.77671"
   id="svg2"
   inkscape:version="0.48.4 r"
   sodipodi:docname="holes.svg">
  <sodipodi:namedview
     pagecolor="#ffffff"
     bordercolor="#666666"
     borderopacity="1"
     objecttolerance="10"
     gridtolerance="10"
     guidetolerance="10"
     inkscape:pageopacity="0"
     inkscape:pageshadow="2"
     inkscape:window-width="1280"
     inkscape:window-height="752"
     id="namedview21"
     showgrid="false"
     inkscape:object-paths="true"
     inkscape:snap-intersection-paths="true"
     inkscape:object-nodes="true"
     inkscape:snap-smooth-nodes="true"
     inkscape:snap-page="true"
     inkscape:snap-bbox="true"
     inkscape:snap-object-midpoints="true"
     fit-margin-top="0"
     fit-margin-left="0"
     fit-margin-right="0"
     fit-margin-bottom="0"
     inkscape:document-units="mm"
     inkscape:zoom="0.77927197"
     inkscape:cx="382.70563"
     inkscape:cy="224.50606"
     inkscape:window-x="0"
     inkscape:window-y="0"
     inkscape:window-maximized="1"
     inkscape:current-layer="svg2" />
  <metadata
     id="metadata32">
    <rdf:RDF>
      <cc:Work
         rdf:about="">
        <dc:format>image/svg+xml</dc:format>
        <dc:type
           rdf:resource="http://purl.org/dc/dcmitype/StillImage" />
        <dc:title />
      </cc:Work>
    </rdf:RDF>
  </metadata>
  <defs
     id="defs30">
    <linearGradient
       id="linearGradient3766"
       osb:paint="solid">
      <stop
         style="stop-color:#000000;stop-opacity:1;"
         offset="0"
         id="stop3768" />
    </linearGradient>
  </defs>
  <g
     transform="translate(43.156719,31.044582)"
     id="g8"
     style="opacity:1">
    <polygon
       points="147.04737,10.62993 147.04737,0 168.30723,0 168.30723,10.62993 189.56708,10.62993 189.56708,0 210.82694,0 210.82694,10.62993 232.0868,10.62993 232.0868,0 253.34667,0 253.34667,10.62993 274.60653,10.62993 274.60653,0 295.86639,0 295.86639,10.62993 317.12624,10.62993 317.12624,0 338.3861,0 338.3861,10.62993 359.64596,10.62993 359.64596,0 380.90582,0 380.90582,10.62993 402.16568,10.62993 402.16568,0 423.42554,0 423.42554,10.62993 444.68541,10.62993 444.68541,0 465.94527,0 465.94527,10.62993 487.20513,10.62993 487.20513,0 508.46499,0 508.46499,10.62993 529.72484,10.62993 529.72484,0 550.98471,0 550.98471,10.62993 572.24456,10.62993 572.24456,0 593.50442,0 593.50442,10.62993 614.76428,10.62993 614.76428,0 636.02414,0 636.02414,10.62993 657.284,10.62993 657.284,0 678.54386,0 678.54386,10.62993 699.80372,10.62993 699.80372,0 721.06358,0 721.06358,10.62993 752.06755,10.62993 752.06755,0 783.07151,0 783.07151,30.118135 772.44158,30.118135 772.44158,60.23627 783.07151,60.23627 783.07151,81.49613 772.44158,81.49613 772.44158,102.75599 783.07151,102.75599 783.07151,124.01585 772.44158,124.01585 772.44158,145.27571 783.07151,145.27571 783.07151,166.53557 772.44158,166.53557 772.44158,187.79543 783.07151,187.79543 783.07151,209.05529 772.44158,209.05529 772.44158,230.31515 783.07151,230.31515 783.07151,251.57501 772.44158,251.57501 772.44158,272.83487 783.07151,272.83487 783.07151,294.09473 772.44158,294.09473 772.44158,324.21287 783.07151,324.21287 783.07151,354.331 752.06755,354.331 752.06755,343.70107 721.06358,343.70107 721.06358,354.331 699.80372,354.331 699.80372,343.70107 678.54386,343.70107 678.54386,354.331 657.284,354.331 657.284,343.70107 636.02414,343.70107 636.02414,354.331 614.76428,354.331 614.76428,343.70107 593.50442,343.70107 593.50442,354.331 572.24456,354.331 572.24456,343.70107 550.98471,343.70107 550.98471,354.331 529.72484,354.331 529.72484,343.70107 508.46499,343.70107 508.46499,354.331 487.20513,354.331 487.20513,343.70107 465.94527,343.70107 465.94527,354.331 444.68541,354.331 444.68541,343.70107 423.42554,343.70107 423.42554,354.331 402.16568,354.331 402.16568,343.70107 380.90582,343.70107 380.90582,354.331 359.64596,354.331 359.64596,343.70107 338.3861,343.70107 338.3861,354.331 317.12624,354.331 317.12624,343.70107 295.86639,343.70107 295.86639,354.331 274.60653,354.331 274.60653,343.70107 253.34667,343.70107 253.34667,354.331 232.0868,354.331 232.0868,343.70107 210.82694,343.70107 210.82694,354.331 189.56708,354.331 189.56708,343.70107 168.30723,343.70107 168.30723,354.331 147.04737,354.331 147.04737,343.70107 125.7875,343.70107 125.7875,354.331 104.52765,354.331 104.52765,343.70107 83.267785,343.70107 83.267785,354.331 62.007925,354.331 62.007925,343.70107 31.003963,343.70107 31.003963,354.331 0,354.331 0,324.21287 10.62993,324.21287 10.62993,294.09473 0,294.09473 0,272.83487 10.62993,272.83487 10.62993,251.57501 0,251.57501 0,230.31515 10.62993,230.31515 10.62993,209.05529 0,209.05529 0,187.79543 10.62993,187.79543 10.62993,166.53557 0,166.53557 0,145.27571 10.62993,145.27571 10.62993,124.01585 0,124.01585 0,102.75599 10.62993,102.75599 10.62993,81.49613 0,81.49613 0,60.23627 10.62993,60.23627 10.62993,30.118135 0,30.118135 0,0 31.003963,0 31.003963,10.62993 62.007925,10.62993 62.007925,0 83.267785,0 83.267785,10.62993 104.52765,10.62993 104.52765,0 125.7875,0 125.7875,10.62993 "
       id="polygon10"
       style="fill:none;stroke:#000000;stroke-width:0.90000075000000002" />
  </g>
  <path
     d="m 620.71626,208.21009 a 70.866205,70.866203 0 0 1 -141.73241,0 70.866205,70.866203 0 1 1 141.73241,0 z"
     id="path3801"
     style="fill:none;stroke:#000000;stroke-width:1.00000083;stroke-miterlimit:4;stroke-opacity:1;stroke-dasharray:none"
     inkscape:connector-curvature="0" />
  <path
     inkscape:connector-curvature="0"
     style="fill:none;stroke:#000000;stroke-width:0.90000081;stroke-miterlimit:4;stroke-opacity:1;stroke-dasharray:none"
     id="path3778"
     d="m 390.40109,208.21008 a 70.866205,70.866203 0 0 1 -141.73241,0 70.866205,70.866203 0 1 1 141.73241,0 z" />
</svg>
