<?xml version="1.0" encoding="UTF-8" standalone="no"?>
<svg
   xmlns:dc="http://purl.org/dc/elements/1.1/"
   xmlns:cc="http://creativecommons.org/ns#"
   xmlns:rdf="http://www.w3.org/1999/02/22-rdf-syntax-ns#"
   xmlns:svg="http://www.w3.org/2000/svg"
   xmlns="http://www.w3.org/2000/svg"
   xmlns:sodipodi="http://sodipodi.sourceforge.net/DTD/sodipodi-0.dtd"
   xmlns:inkscape="http://www.inkscape.org/namespaces/inkscape"
   version="1.1"
   width="402.7mm"
   height="222.7mm"
   viewBox=" 0 0 1426.890937 789.0951369999999"
   id="svg2"
   inkscape:version="0.48.4 r"
   sodipodi:docname="base.svg">
  <metadata
     id="metadata32">
    <rdf:RDF>
      <cc:Work
         rdf:about="">
        <dc:format>image/svg+xml</dc:format>
        <dc:type
           rdf:resource="http://purl.org/dc/dcmitype/StillImage" />
      </cc:Work>
    </rdf:RDF>
  </metadata>
  <defs
     id="defs30" />
  <sodipodi:namedview
     pagecolor="#ffffff"
     bordercolor="#666666"
     borderopacity="1"
     objecttolerance="10"
     gridtolerance="10"
     guidetolerance="10"
     inkscape:pageopacity="0"
     inkscape:pageshadow="2"
     inkscape:window-width="1280"
     inkscape:window-height="752"
     id="namedview28"
     showgrid="false"
     inkscape:document-units="mm"
     inkscape:zoom="0.60411114"
     inkscape:cx="713.44489"
     inkscape:cy="395.43176"
     inkscape:window-x="0"
     inkscape:window-y="0"
     inkscape:window-maximized="1"
     inkscape:current-layer="svg2" />
  <!-- Front-->
  <g
     transform="translate(22.5000185, 22.5000185) "
     id="g4">
    <polygon
       style="stroke:#000000; fill:none; stroke-width:0.90000074"
       points="0, 0 35.433099999999996, 0 35.433099999999996, 10.62993 70.86619999999999, 10.62993 70.86619999999999, 0 92.12606, 0 92.12606, 10.62993 113.38592, 10.62993 113.38592, 0 134.64578, 0 134.64578, 10.62993 155.90564, 10.62993 155.90564, 0 177.1655, 0 177.1655, 10.62993 198.42535999999998, 10.62993 198.42535999999998, 0 219.68522, 0 219.68522, 10.62993 240.94508, 10.62993 240.94508, 0 262.20493999999997, 0 262.20493999999997, 10.62993 283.46479999999997, 10.62993 283.46479999999997, 0 304.72466, 0 304.72466, 10.62993 325.98452, 10.62993 325.98452, 0 347.24438, 0 347.24438, 10.62993 368.50424, 10.62993 368.50424, 0 389.7641, 0 389.7641, 10.62993 425.19719999999995, 10.62993 425.19719999999995, 0 460.6303, 0 460.6303, 33.661445 450.00037, 33.661445 450.00037, 67.32289 460.6303, 67.32289 460.6303, 88.58275 450.00037, 88.58275 450.00037, 109.84261000000001 460.6303, 109.84261000000001 460.6303, 131.10246999999998 450.00037, 131.10246999999998 450.00037, 152.36233 460.6303, 152.36233 460.6303, 173.62219 450.00037, 173.62219 450.00037, 194.88205 460.6303, 194.88205 460.6303, 216.14191 450.00037, 216.14191 450.00037, 249.803355 460.6303, 249.803355 460.6303, 283.46479999999997 425.19719999999995, 283.46479999999997 425.19719999999995, 272.83486999999997 389.7641, 272.83486999999997 389.7641, 283.46479999999997 368.50424, 283.46479999999997 368.50424, 272.83486999999997 347.24438, 272.83486999999997 347.24438, 283.46479999999997 325.98452, 283.46479999999997 325.98452, 272.83486999999997 304.72466, 272.83486999999997 304.72466, 283.46479999999997 283.46479999999997, 283.46479999999997 283.46479999999997, 272.83486999999997 262.20493999999997, 272.83486999999997 262.20493999999997, 283.46479999999997 240.94508, 283.46479999999997 240.94508, 272.83486999999997 219.68522, 272.83486999999997 219.68522, 283.46479999999997 198.42535999999998, 283.46479999999997 198.42535999999998, 272.83486999999997 177.1655, 272.83486999999997 177.1655, 283.46479999999997 155.90564, 283.46479999999997 155.90564, 272.83486999999997 134.64578, 272.83486999999997 134.64578, 283.46479999999997 113.38592, 283.46479999999997 113.38592, 272.83486999999997 92.12606, 272.83486999999997 92.12606, 283.46479999999997 70.86619999999999, 283.46479999999997 70.86619999999999, 272.83486999999997 35.433099999999996, 272.83486999999997 35.433099999999996, 283.46479999999997 0, 283.46479999999997 0, 249.803355 10.62993, 249.803355 10.62993, 216.14191 0, 216.14191 0, 194.88205 10.62993, 194.88205 10.62993, 173.62219 0, 173.62219 0, 152.36233 10.62993, 152.36233 10.62993, 131.10246999999998 0, 131.10246999999998 0, 109.84261000000001 10.62993, 109.84261000000001 10.62993, 88.58275 0, 88.58275 0, 67.32289 10.62993, 67.32289 10.62993, 33.661445 0, 33.661445 "
       id="polygon6" />
  </g>
  <!-- Back-->
  <g
     transform="translate(483.1303185, 22.5000185) "
     id="g8">
    <polygon
       style="stroke:#000000; fill:none; stroke-width:0.90000074"
       points="0, 0 35.433099999999996, 0 35.433099999999996, 10.62993 70.86619999999999, 10.62993 70.86619999999999, 0 92.12606, 0 92.12606, 10.62993 113.38592, 10.62993 113.38592, 0 134.64578, 0 134.64578, 10.62993 155.90564, 10.62993 155.90564, 0 177.1655, 0 177.1655, 10.62993 198.42535999999998, 10.62993 198.42535999999998, 0 219.68522, 0 219.68522, 10.62993 240.94508, 10.62993 240.94508, 0 262.20493999999997, 0 262.20493999999997, 10.62993 283.46479999999997, 10.62993 283.46479999999997, 0 304.72466, 0 304.72466, 10.62993 325.98452, 10.62993 325.98452, 0 347.24438, 0 347.24438, 10.62993 368.50424, 10.62993 368.50424, 0 389.7641, 0 389.7641, 10.62993 425.19719999999995, 10.62993 425.19719999999995, 0 460.6303, 0 460.6303, 33.661445 450.00037, 33.661445 450.00037, 67.32289 460.6303, 67.32289 460.6303, 88.58275 450.00037, 88.58275 450.00037, 109.84261000000001 460.6303, 109.84261000000001 460.6303, 131.10246999999998 450.00037, 131.10246999999998 450.00037, 152.36233 460.6303, 152.36233 460.6303, 173.62219 450.00037, 173.62219 450.00037, 194.88205 460.6303, 194.88205 460.6303, 216.14191 450.00037, 216.14191 450.00037, 249.803355 460.6303, 249.803355 460.6303, 283.46479999999997 425.19719999999995, 283.46479999999997 425.19719999999995, 272.83486999999997 389.7641, 272.83486999999997 389.7641, 283.46479999999997 368.50424, 283.46479999999997 368.50424, 272.83486999999997 347.24438, 272.83486999999997 347.24438, 283.46479999999997 325.98452, 283.46479999999997 325.98452, 272.83486999999997 304.72466, 272.83486999999997 304.72466, 283.46479999999997 283.46479999999997, 283.46479999999997 283.46479999999997, 272.83486999999997 262.20493999999997, 272.83486999999997 262.20493999999997, 283.46479999999997 240.94508, 283.46479999999997 240.94508, 272.83486999999997 219.68522, 272.83486999999997 219.68522, 283.46479999999997 198.42535999999998, 283.46479999999997 198.42535999999998, 272.83486999999997 177.1655, 272.83486999999997 177.1655, 283.46479999999997 155.90564, 283.46479999999997 155.90564, 272.83486999999997 134.64578, 272.83486999999997 134.64578, 283.46479999999997 113.38592, 283.46479999999997 113.38592, 272.83486999999997 92.12606, 272.83486999999997 92.12606, 283.46479999999997 70.86619999999999, 283.46479999999997 70.86619999999999, 272.83486999999997 35.433099999999996, 272.83486999999997 35.433099999999996, 283.46479999999997 0, 283.46479999999997 0, 249.803355 10.62993, 249.803355 10.62993, 216.14191 0, 216.14191 0, 194.88205 10.62993, 194.88205 10.62993, 173.62219 0, 173.62219 0, 152.36233 10.62993, 152.36233 10.62993, 131.10246999999998 0, 131.10246999999998 0, 109.84261000000001 10.62993, 109.84261000000001 10.62993, 88.58275 0, 88.58275 0, 67.32289 10.62993, 67.32289 10.62993, 33.661445 0, 33.661445 "
       id="polygon10" />
  </g>
  <!-- Left-->
  <g
     transform="translate(943.7606185000001, 22.5000185) "
     id="g12">
    <polygon
       style="stroke:#000000; fill:none; stroke-width:0.90000074"
       points="10.62993, 0 35.433099999999996, 0 35.433099999999996, 10.62993 70.86619999999999, 10.62993 70.86619999999999, 0 92.12606, 0 92.12606, 10.62993 113.38592, 10.62993 113.38592, 0 134.64578, 0 134.64578, 10.62993 155.90564, 10.62993 155.90564, 0 177.1655, 0 177.1655, 10.62993 198.42535999999998, 10.62993 198.42535999999998, 0 219.68522, 0 219.68522, 10.62993 240.94508, 10.62993 240.94508, 0 262.20493999999997, 0 262.20493999999997, 10.62993 283.46479999999997, 10.62993 283.46479999999997, 0 304.72466, 0 304.72466, 10.62993 325.98452, 10.62993 325.98452, 0 347.24438, 0 347.24438, 10.62993 368.50424, 10.62993 368.50424, 0 389.7641, 0 389.7641, 10.62993 425.19719999999995, 10.62993 425.19719999999995, 0 450.00037, 0 450.00037, 33.661445 460.6303, 33.661445 460.6303, 67.32289 450.00037, 67.32289 450.00037, 88.58275 460.6303, 88.58275 460.6303, 109.84261000000001 450.00037, 109.84261000000001 450.00037, 131.10246999999998 460.6303, 131.10246999999998 460.6303, 152.36233 450.00037, 152.36233 450.00037, 173.62219 460.6303, 173.62219 460.6303, 194.88205 450.00037, 194.88205 450.00037, 216.14191 460.6303, 216.14191 460.6303, 249.803355 450.00037, 249.803355 450.00037, 283.46479999999997 425.19719999999995, 283.46479999999997 425.19719999999995, 272.83486999999997 389.7641, 272.83486999999997 389.7641, 283.46479999999997 368.50424, 283.46479999999997 368.50424, 272.83486999999997 347.24438, 272.83486999999997 347.24438, 283.46479999999997 325.98452, 283.46479999999997 325.98452, 272.83486999999997 304.72466, 272.83486999999997 304.72466, 283.46479999999997 283.46479999999997, 283.46479999999997 283.46479999999997, 272.83486999999997 262.20493999999997, 272.83486999999997 262.20493999999997, 283.46479999999997 240.94508, 283.46479999999997 240.94508, 272.83486999999997 219.68522, 272.83486999999997 219.68522, 283.46479999999997 198.42535999999998, 283.46479999999997 198.42535999999998, 272.83486999999997 177.1655, 272.83486999999997 177.1655, 283.46479999999997 155.90564, 283.46479999999997 155.90564, 272.83486999999997 134.64578, 272.83486999999997 134.64578, 283.46479999999997 113.38592, 283.46479999999997 113.38592, 272.83486999999997 92.12606, 272.83486999999997 92.12606, 283.46479999999997 70.86619999999999, 283.46479999999997 70.86619999999999, 272.83486999999997 35.433099999999996, 272.83486999999997 35.433099999999996, 283.46479999999997 10.62993, 283.46479999999997 10.62993, 249.803355 0, 249.803355 0, 216.14191 10.62993, 216.14191 10.62993, 194.88205 0, 194.88205 0, 173.62219 10.62993, 173.62219 10.62993, 152.36233 0, 152.36233 0, 131.10246999999998 10.62993, 131.10246999999998 10.62993, 109.84261000000001 0, 109.84261000000001 0, 88.58275 10.62993, 88.58275 10.62993, 67.32289 0, 67.32289 0, 33.661445 10.62993, 33.661445 "
       id="polygon14" />
  </g>
  <!-- Right-->
  <g
     transform="translate(943.7606185000001, 305.9648185) "
     id="g16">
    <polygon
       style="stroke:#000000; fill:none; stroke-width:0.90000074"
       points="10.62993, 0 35.433099999999996, 0 35.433099999999996, 10.62993 70.86619999999999, 10.62993 70.86619999999999, 0 92.12606, 0 92.12606, 10.62993 113.38592, 10.62993 113.38592, 0 134.64578, 0 134.64578, 10.62993 155.90564, 10.62993 155.90564, 0 177.1655, 0 177.1655, 10.62993 198.42535999999998, 10.62993 198.42535999999998, 0 219.68522, 0 219.68522, 10.62993 240.94508, 10.62993 240.94508, 0 262.20493999999997, 0 262.20493999999997, 10.62993 283.46479999999997, 10.62993 283.46479999999997, 0 304.72466, 0 304.72466, 10.62993 325.98452, 10.62993 325.98452, 0 347.24438, 0 347.24438, 10.62993 368.50424, 10.62993 368.50424, 0 389.7641, 0 389.7641, 10.62993 425.19719999999995, 10.62993 425.19719999999995, 0 450.00037, 0 450.00037, 33.661445 460.6303, 33.661445 460.6303, 67.32289 450.00037, 67.32289 450.00037, 88.58275 460.6303, 88.58275 460.6303, 109.84261000000001 450.00037, 109.84261000000001 450.00037, 131.10246999999998 460.6303, 131.10246999999998 460.6303, 152.36233 450.00037, 152.36233 450.00037, 173.62219 460.6303, 173.62219 460.6303, 194.88205 450.00037, 194.88205 450.00037, 216.14191 460.6303, 216.14191 460.6303, 249.803355 450.00037, 249.803355 450.00037, 283.46479999999997 425.19719999999995, 283.46479999999997 425.19719999999995, 272.83486999999997 389.7641, 272.83486999999997 389.7641, 283.46479999999997 368.50424, 283.46479999999997 368.50424, 272.83486999999997 347.24438, 272.83486999999997 347.24438, 283.46479999999997 325.98452, 283.46479999999997 325.98452, 272.83486999999997 304.72466, 272.83486999999997 304.72466, 283.46479999999997 283.46479999999997, 283.46479999999997 283.46479999999997, 272.83486999999997 262.20493999999997, 272.83486999999997 262.20493999999997, 283.46479999999997 240.94508, 283.46479999999997 240.94508, 272.83486999999997 219.68522, 272.83486999999997 219.68522, 283.46479999999997 198.42535999999998, 283.46479999999997 198.42535999999998, 272.83486999999997 177.1655, 272.83486999999997 177.1655, 283.46479999999997 155.90564, 283.46479999999997 155.90564, 272.83486999999997 134.64578, 272.83486999999997 134.64578, 283.46479999999997 113.38592, 283.46479999999997 113.38592, 272.83486999999997 92.12606, 272.83486999999997 92.12606, 283.46479999999997 70.86619999999999, 283.46479999999997 70.86619999999999, 272.83486999999997 35.433099999999996, 272.83486999999997 35.433099999999996, 283.46479999999997 10.62993, 283.46479999999997 10.62993, 249.803355 0, 249.803355 0, 216.14191 10.62993, 216.14191 10.62993, 194.88205 0, 194.88205 0, 173.62219 10.62993, 173.62219 10.62993, 152.36233 0, 152.36233 0, 131.10246999999998 10.62993, 131.10246999999998 10.62993, 109.84261000000001 0, 109.84261000000001 0, 88.58275 10.62993, 88.58275 10.62993, 67.32289 0, 67.32289 0, 33.661445 10.62993, 33.661445 "
       id="polygon18" />
  </g>
  <!-- Top-->
  <g
     transform="translate(22.5000185, 305.9648185) "
     id="g20">
    <polygon
       style="stroke:#000000; fill:none; stroke-width:0.90000074"
       points="10.62993, 10.62993 35.433099999999996, 10.62993 35.433099999999996, 0 70.86619999999999, 0 70.86619999999999, 10.62993 92.12606, 10.62993 92.12606, 0 113.38592, 0 113.38592, 10.62993 134.64578, 10.62993 134.64578, 0 155.90564, 0 155.90564, 10.62993 177.1655, 10.62993 177.1655, 0 198.42535999999998, 0 198.42535999999998, 10.62993 219.68522, 10.62993 219.68522, 0 240.94508, 0 240.94508, 10.62993 262.20493999999997, 10.62993 262.20493999999997, 0 283.46479999999997, 0 283.46479999999997, 10.62993 304.72466, 10.62993 304.72466, 0 325.98452, 0 325.98452, 10.62993 347.24438, 10.62993 347.24438, 0 368.50424, 0 368.50424, 10.62993 389.7641, 10.62993 389.7641, 0 425.19719999999995, 0 425.19719999999995, 10.62993 450.00037, 10.62993 450.00037, 35.433099999999996 460.6303, 35.433099999999996 460.6303, 70.86619999999999 450.00037, 70.86619999999999 450.00037, 92.12606 460.6303, 92.12606 460.6303, 113.38592 450.00037, 113.38592 450.00037, 134.64578 460.6303, 134.64578 460.6303, 155.90564 450.00037, 155.90564 450.00037, 177.1655 460.6303, 177.1655 460.6303, 198.42535999999998 450.00037, 198.42535999999998 450.00037, 219.68522 460.6303, 219.68522 460.6303, 240.94508 450.00037, 240.94508 450.00037, 262.20493999999997 460.6303, 262.20493999999997 460.6303, 283.46479999999997 450.00037, 283.46479999999997 450.00037, 304.72466 460.6303, 304.72466 460.6303, 325.98452 450.00037, 325.98452 450.00037, 347.24438 460.6303, 347.24438 460.6303, 368.50424 450.00037, 368.50424 450.00037, 389.7641 460.6303, 389.7641 460.6303, 425.19719999999995 450.00037, 425.19719999999995 450.00037, 450.00037 425.19719999999995, 450.00037 425.19719999999995, 460.6303 389.7641, 460.6303 389.7641, 450.00037 368.50424, 450.00037 368.50424, 460.6303 347.24438, 460.6303 347.24438, 450.00037 325.98452, 450.00037 325.98452, 460.6303 304.72466, 460.6303 304.72466, 450.00037 283.46479999999997, 450.00037 283.46479999999997, 460.6303 262.20493999999997, 460.6303 262.20493999999997, 450.00037 240.94508, 450.00037 240.94508, 460.6303 219.68522, 460.6303 219.68522, 450.00037 198.42535999999998, 450.00037 198.42535999999998, 460.6303 177.1655, 460.6303 177.1655, 450.00037 155.90564, 450.00037 155.90564, 460.6303 134.64578, 460.6303 134.64578, 450.00037 113.38592, 450.00037 113.38592, 460.6303 92.12606, 460.6303 92.12606, 450.00037 70.86619999999999, 450.00037 70.86619999999999, 460.6303 35.433099999999996, 460.6303 35.433099999999996, 450.00037 10.62993, 450.00037 10.62993, 425.19719999999995 0, 425.19719999999995 0, 389.7641 10.62993, 389.7641 10.62993, 368.50424 0, 368.50424 0, 347.24438 10.62993, 347.24438 10.62993, 325.98452 0, 325.98452 0, 304.72466 10.62993, 304.72466 10.62993, 283.46479999999997 0, 283.46479999999997 0, 262.20493999999997 10.62993, 262.20493999999997 10.62993, 240.94508 0, 240.94508 0, 219.68522 10.62993, 219.68522 10.62993, 198.42535999999998 0, 198.42535999999998 0, 177.1655 10.62993, 177.1655 10.62993, 155.90564 0, 155.90564 0, 134.64578 10.62993, 134.64578 10.62993, 113.38592 0, 113.38592 0, 92.12606 10.62993, 92.12606 10.62993, 70.86619999999999 0, 70.86619999999999 0, 35.433099999999996 10.62993, 35.433099999999996 "
       id="polygon22" />
  </g>
  <!-- Bottom-->
  <g
     transform="translate(483.1303185, 305.9648185) "
     id="g24">
    <polygon
       style="stroke:#000000; fill:none; stroke-width:0.90000074"
       points="10.62993, 10.62993 35.433099999999996, 10.62993 35.433099999999996, 0 70.86619999999999, 0 70.86619999999999, 10.62993 92.12606, 10.62993 92.12606, 0 113.38592, 0 113.38592, 10.62993 134.64578, 10.62993 134.64578, 0 155.90564, 0 155.90564, 10.62993 177.1655, 10.62993 177.1655, 0 198.42535999999998, 0 198.42535999999998, 10.62993 219.68522, 10.62993 219.68522, 0 240.94508, 0 240.94508, 10.62993 262.20493999999997, 10.62993 262.20493999999997, 0 283.46479999999997, 0 283.46479999999997, 10.62993 304.72466, 10.62993 304.72466, 0 325.98452, 0 325.98452, 10.62993 347.24438, 10.62993 347.24438, 0 368.50424, 0 368.50424, 10.62993 389.7641, 10.62993 389.7641, 0 425.19719999999995, 0 425.19719999999995, 10.62993 450.00037, 10.62993 450.00037, 35.433099999999996 460.6303, 35.433099999999996 460.6303, 70.86619999999999 450.00037, 70.86619999999999 450.00037, 92.12606 460.6303, 92.12606 460.6303, 113.38592 450.00037, 113.38592 450.00037, 134.64578 460.6303, 134.64578 460.6303, 155.90564 450.00037, 155.90564 450.00037, 177.1655 460.6303, 177.1655 460.6303, 198.42535999999998 450.00037, 198.42535999999998 450.00037, 219.68522 460.6303, 219.68522 460.6303, 240.94508 450.00037, 240.94508 450.00037, 262.20493999999997 460.6303, 262.20493999999997 460.6303, 283.46479999999997 450.00037, 283.46479999999997 450.00037, 304.72466 460.6303, 304.72466 460.6303, 325.98452 450.00037, 325.98452 450.00037, 347.24438 460.6303, 347.24438 460.6303, 368.50424 450.00037, 368.50424 450.00037, 389.7641 460.6303, 389.7641 460.6303, 425.19719999999995 450.00037, 425.19719999999995 450.00037, 450.00037 425.19719999999995, 450.00037 425.19719999999995, 460.6303 389.7641, 460.6303 389.7641, 450.00037 368.50424, 450.00037 368.50424, 460.6303 347.24438, 460.6303 347.24438, 450.00037 325.98452, 450.00037 325.98452, 460.6303 304.72466, 460.6303 304.72466, 450.00037 283.46479999999997, 450.00037 283.46479999999997, 460.6303 262.20493999999997, 460.6303 262.20493999999997, 450.00037 240.94508, 450.00037 240.94508, 460.6303 219.68522, 460.6303 219.68522, 450.00037 198.42535999999998, 450.00037 198.42535999999998, 460.6303 177.1655, 460.6303 177.1655, 450.00037 155.90564, 450.00037 155.90564, 460.6303 134.64578, 460.6303 134.64578, 450.00037 113.38592, 450.00037 113.38592, 460.6303 92.12606, 460.6303 92.12606, 450.00037 70.86619999999999, 450.00037 70.86619999999999, 460.6303 35.433099999999996, 460.6303 35.433099999999996, 450.00037 10.62993, 450.00037 10.62993, 425.19719999999995 0, 425.19719999999995 0, 389.7641 10.62993, 389.7641 10.62993, 368.50424 0, 368.50424 0, 347.24438 10.62993, 347.24438 10.62993, 325.98452 0, 325.98452 0, 304.72466 10.62993, 304.72466 10.62993, 283.46479999999997 0, 283.46479999999997 0, 262.20493999999997 10.62993, 262.20493999999997 10.62993, 240.94508 0, 240.94508 0, 219.68522 10.62993, 219.68522 10.62993, 198.42535999999998 0, 198.42535999999998 0, 177.1655 10.62993, 177.1655 10.62993, 155.90564 0, 155.90564 0, 134.64578 10.62993, 134.64578 10.62993, 113.38592 0, 113.38592 0, 92.12606 10.62993, 92.12606 10.62993, 70.86619999999999 0, 70.86619999999999 0, 35.433099999999996 10.62993, 35.433099999999996 "
       id="polygon26" />
  </g>
  <path
     sodipodi:type="arc"
     style="fill:none;fill-opacity:0.43961355000000002;stroke:#000000;stroke-opacity:1;stroke-width:0.98245616;stroke-miterlimit:4;stroke-dasharray:none"
     id="path3009"
     sodipodi:cx="695.23633"
     sodipodi:cy="510.99997"
     sodipodi:rx="34.761814"
     sodipodi:ry="43.038437"
     d="m 729.99814,510.99997 a 34.761814,43.038437 0 1 1 -69.52363,0 34.761814,43.038437 0 1 1 69.52363,0 z"
     transform="matrix(0.50965551,0,0,0.41164483,359.11444,325.92947)" />
</svg>
